<?xml version="1.0" encoding="utf-8"?>
<!-- Generator: Adobe Illustrator 19.0.0, SVG Export Plug-In . SVG Version: 6.00 Build 0)  -->
<svg version="1.1" id="Layer_1" xmlns="http://www.w3.org/2000/svg" xmlns:xlink="http://www.w3.org/1999/xlink" x="0px" y="0px"
	 viewBox="-291.5 383 277.7 28" style="enable-background:new -291.5 383 277.7 28;" xml:space="preserve">
<style type="text/css">
	.st0{fill:#333333;}
	.st1{fill:#B2D7FF;}
</style>
<g id="XMLID_1_">
</g>
<g>
</g>
<g>
	<path class="st0" d="M-288.6,410v-25.2h18v4.6H-283v16.1h12.9v4.6H-288.6z M-280.4,399.3v-4.6h7.1v4.6H-280.4z"/>
	<path class="st0" d="M-244.5,410h-7l-5.6-8l-5.6,8h-6.4l17.6-25.2h6.5l-8.6,12.2L-244.5,410z M-258.3,390.4l-3.5,4.8l-7.1-10.3h6.9
		L-258.3,390.4z"/>
	<path class="st0" d="M-225.1,384.8h4.3V410h-5.5v-16.2l-6.6,7.9h4v4.4h-7.7l-3.3,3.9h-6.5L-225.1,384.8z"/>
	<path class="st0" d="M-193.9,384.8h3.6V410h-5.5v-16.4l-7.1,7.2l-6.8-6.8v16h-5.5v-25.2h3.8l8.7,8.8L-193.9,384.8z"/>
	<path class="st0" d="M-184.8,410v-9.8h10.2c1.8,0,3.2-0.5,4.4-1.5c1.1-1,1.7-2.3,1.7-3.9c0-3.1-2.3-5.2-6-5.2h-10.2v-4.8h11.1
		c3.2,0,5.8,0.9,7.7,2.7c1.9,1.8,2.9,4.1,2.9,7.1c0,2.9-1,5.3-3.1,7.3c-2.1,2-4.5,3-7.5,3h-5.5v5.1H-184.8z"/>
	<path class="st0" d="M-159.5,410v-25.2h10.9c3.5,0,6.3,0.9,8.4,2.7c2.1,1.8,3.1,4.2,3.1,7.2c0,4.3-1.9,7.2-5.6,8.8l5.9,6.5h-7.5
		l-4.5-5.3v-4.5h0.3c3.6,0,5.9-2.3,5.9-5.4c0-3-2.3-5.3-5.9-5.3h-5.5V410H-159.5z"/>
	<path class="st0" d="M-132.7,410v-25.2h5.5V410H-132.7z"/>
	<path class="st0" d="M-105.1,384.8h5.5V410h-5.5v-10.8l-11-6.8V410h-5.5v-25.2h3.4l13.1,8.2V384.8z"/>
	<path class="st0" d="M-91.7,406.8c-2.5-2.4-3.8-5.5-3.8-9.2c0-3.9,1.3-7.1,3.8-9.6c2.5-2.5,5.8-3.7,9.7-3.7c4.1,0,7.3,1.3,9.9,3.9
		l-3.8,3.4c-1.6-1.7-3.6-2.6-6.2-2.6c-2.3,0-4.3,0.8-5.8,2.3s-2.2,3.6-2.2,6.2c0,2.5,0.8,4.5,2.2,6c1.5,1.5,3.5,2.2,5.9,2.2
		c2.5,0,4.5-0.8,6.1-2.5l3.2,3.4c-2.6,2.6-5.7,3.8-9.5,3.8C-85.9,410.4-89.2,409.2-91.7,406.8z"/>
	<path class="st0" d="M-68.7,410v-25.2h18v4.6h-12.5v16.1h12.9v4.6H-68.7z M-60.5,399.3v-4.6h7.1v4.6H-60.5z"/>
</g>
<g>
	<path class="st1" d="M-38.7,405.3c0,2.7-2.2,4.8-4.8,4.8s-4.8-2.2-4.8-4.8s2.2-4.8,4.8-4.8S-38.7,402.6-38.7,405.3z"/>
</g>
<g>
</g>
<g>
	<path class="st0" d="M-47.1,387.3c1.1-1.1,2.4-1.6,4.1-1.6c1.8,0,3,0.5,4.1,1.6l-0.7,0.6c-0.9-0.9-2-1.4-3.4-1.4
		c-1.4,0-2.5,0.4-3.4,1.4c-0.9,0.9-1.3,2.1-1.3,3.5c0,1.4,0.4,2.6,1.3,3.5c0.9,0.9,2,1.3,3.4,1.3c1.4,0,2.5-0.5,3.4-1.4l0.6,0.6
		c-1.1,1.1-2.4,1.6-4.1,1.6c-1.6,0-3-0.5-4.1-1.6c-1.1-1.1-1.6-2.4-1.6-4.1C-48.7,389.7-48.2,388.4-47.1,387.3z"/>
	<path class="st0" d="M-36.2,395.5c-1.1-1.1-1.6-2.4-1.6-4.1c0-1.7,0.5-3,1.6-4.1c1.1-1.1,2.4-1.6,4-1.6s3,0.5,4,1.6
		c1.1,1.1,1.6,2.4,1.6,4.1c0,1.6-0.5,3-1.6,4.1c-1.1,1.1-2.4,1.6-4,1.6C-33.8,397.1-35.1,396.6-36.2,395.5z M-35.5,388
		c-0.9,0.9-1.3,2-1.3,3.4s0.4,2.5,1.3,3.5c0.9,0.9,2,1.3,3.3,1.3s2.4-0.4,3.3-1.3c0.9-0.9,1.3-2.1,1.3-3.5s-0.4-2.5-1.3-3.4
		c-0.9-0.9-2-1.4-3.3-1.4C-33.5,386.6-34.6,387-35.5,388z"/>
	<path class="st0" d="M-14.5,385.7h0.3V397h-1v-9.2l-4,4.3l-4-4.2v9.2h-1v-11.3h0.3l4.7,4.9L-14.5,385.7z"/>
</g>
</svg>
