<svg version="1.0" preserveAspectRatio="xMidYMid meet" viewBox="28.687500000000004 9.112499730000001 279.1125 41.51249877" zoomAndPan="magnify" xmlns:xlink="http://www.w3.org/1999/xlink" xmlns="http://www.w3.org/2000/svg" style="max-height: 500px" width="279.1125" height="41.51249877"><defs><g/></defs><g fill-opacity="1" fill="#222222"><g transform="translate(28.114647, 47.849362)"><g><path d="M 21.140625 -37.015625 C 24.992188 -37.015625 28.613281 -36.023438 32 -34.046875 L 27.125 -26.78125 C 25.425781 -28.375 23.476562 -29.171875 21.28125 -29.171875 C 20.132812 -29.171875 19.085938 -28.84375 18.140625 -28.1875 C 17.203125 -27.539062 16.734375 -26.738281 16.734375 -25.78125 C 16.734375 -25.082031 17.066406 -24.46875 17.734375 -23.9375 C 18.410156 -23.414062 19.640625 -22.898438 21.421875 -22.390625 C 23.847656 -21.648438 25.601562 -20.9375 26.6875 -20.25 C 27.769531 -19.570312 28.613281 -18.726562 29.21875 -17.71875 C 29.820312 -16.71875 30.125 -15.46875 30.125 -13.96875 C 30.125 -11.800781 29.566406 -9.503906 28.453125 -7.078125 C 27.335938 -4.648438 25.507812 -2.71875 22.96875 -1.28125 C 20.4375 0.144531 17.4375 0.890625 13.96875 0.953125 C 9.5 0.953125 5.476562 -0.414062 1.90625 -3.15625 L 7.125 -10.71875 C 9.613281 -8.226562 12.179688 -6.984375 14.828125 -6.984375 C 16.296875 -6.984375 17.53125 -7.363281 18.53125 -8.125 C 19.539062 -8.894531 20.046875 -9.867188 20.046875 -11.046875 C 20.046875 -12.578125 18.515625 -13.757812 15.453125 -14.59375 C 11.753906 -15.613281 9.359375 -16.703125 8.265625 -17.859375 C 7.179688 -19.023438 6.640625 -20.582031 6.640625 -22.53125 C 6.640625 -26.613281 8.035156 -30.046875 10.828125 -32.828125 C 13.617188 -35.617188 17.054688 -37.015625 21.140625 -37.015625 Z M 21.140625 -37.015625"/></g></g></g><g fill-opacity="1" fill="#222222"><g transform="translate(52.454709, 47.849362)"><g><path d="M 30.84375 -36.0625 L 29.609375 -28.125 L 21.859375 -28.125 L 17.40625 0 L 8.03125 0 L 12.484375 -28.125 L 4.734375 -28.125 L 5.984375 -36.0625 Z M 30.84375 -36.0625"/></g></g></g><g fill-opacity="1" fill="#222222"><g transform="translate(72.873505, 47.849362)"><g><path d="M 17.9375 -36.0625 L 14.96875 -17.03125 C 14.6875 -15.300781 14.546875 -13.894531 14.546875 -12.8125 C 14.546875 -11 14.9375 -9.617188 15.71875 -8.671875 C 16.5 -7.734375 17.84375 -7.265625 19.75 -7.265625 C 22.082031 -7.265625 23.859375 -8.019531 25.078125 -9.53125 C 26.304688 -11.050781 27.160156 -13.4375 27.640625 -16.6875 L 30.65625 -36.0625 L 40.03125 -36.0625 L 36.78125 -15.3125 C 36.144531 -11.09375 35.046875 -7.882812 33.484375 -5.6875 C 31.921875 -3.488281 29.835938 -1.832031 27.234375 -0.71875 C 24.640625 0.394531 21.71875 0.953125 18.46875 0.953125 C 14.0625 0.953125 10.675781 0.00390625 8.3125 -1.890625 C 5.957031 -3.785156 4.78125 -6.550781 4.78125 -10.1875 C 4.78125 -10.851562 4.8125 -11.582031 4.875 -12.375 C 4.9375 -13.175781 6.164062 -21.070312 8.5625 -36.0625 Z M 17.9375 -36.0625"/></g></g></g><g fill-opacity="1" fill="#222222"><g transform="translate(105.008289, 47.849362)"><g><path d="M 22.09375 -36.0625 C 25.09375 -36.0625 27.78125 -35.398438 30.15625 -34.078125 C 32.53125 -32.753906 34.394531 -30.925781 35.75 -28.59375 C 37.101562 -26.269531 37.78125 -23.785156 37.78125 -21.140625 C 37.78125 -17.503906 36.800781 -14.050781 34.84375 -10.78125 C 32.882812 -7.519531 30.226562 -4.90625 26.875 -2.9375 C 23.53125 -0.976562 20.039062 0 16.40625 0 L 3.0625 0 L 8.75 -36.0625 Z M 13.671875 -7.9375 L 15.5 -7.9375 C 19.289062 -7.9375 22.3125 -9.0625 24.5625 -11.3125 C 26.8125 -13.5625 27.9375 -16.472656 27.9375 -20.046875 C 27.9375 -22.460938 27.175781 -24.410156 25.65625 -25.890625 C 24.144531 -27.378906 21.890625 -28.125 18.890625 -28.125 L 16.890625 -28.125 Z M 13.671875 -7.9375"/></g></g></g><g fill-opacity="1" fill="#222222"><g transform="translate(135.899754, 47.849362)"><g><path d="M 16.015625 -36.0625 L 21.234375 -26.25 L 29.515625 -36.0625 L 40.75 -36.0625 L 24.484375 -17.3125 L 21.765625 0 L 12.390625 0 L 15.109375 -17.3125 L 4.78125 -36.0625 Z M 16.015625 -36.0625"/></g></g></g><path stroke-miterlimit="4" stroke-opacity="1" stroke-width="2.087771" stroke="#ffffff" d="M 43.892589 15.574252 L 39.327774 44.353575 L 45.162342 44.353575 L 43.687959 53.981663 L 37.853391 53.981663 L 36.237341 63.998021 L 24.557711 63.998021 L 26.15802 53.981663 L 2.651845 53.981663 L 3.937339 45.948637 L 27.380551 15.574252 Z M 16.199377 44.353575 L 27.632402 44.353575 L 30.591662 25.721784 L 30.470983 25.721784 Z M 71.302467 15.574252 C 75.966974 15.574252 79.64506 16.628882 82.341974 18.727648 C 85.044135 20.821166 86.392592 23.895858 86.392592 27.962216 C 86.392592 31.173328 85.684258 34.473637 84.272839 37.857896 C 82.861419 41.247402 80.573764 43.797403 77.404628 45.513143 C 74.235492 47.218391 70.683331 48.026415 66.742899 47.942465 L 59.229318 47.942465 L 56.65833 63.998021 L 44.065737 63.998021 L 51.720984 15.574252 Z M 62.697528 25.721784 L 60.829627 37.794933 L 63.920059 37.794933 C 67.47222 37.794933 69.880554 37.15481 71.134566 35.869316 C 72.399072 34.583822 73.028702 32.652957 73.028702 30.08197 C 73.028702 28.502648 72.509257 27.385056 71.459875 26.723945 C 70.415739 26.057587 68.736726 25.721784 66.428084 25.721784 Z M 118.047224 15.574252 L 128.64599 63.998021 L 115.224384 63.998021 L 113.435186 55.576724 L 96.094136 55.576724 L 91.403395 63.998021 L 78.044752 63.998021 L 104.310803 15.574252 Z M 101.094445 45.948637 L 111.572532 45.948637 L 108.875618 30.538451 L 108.749692 30.538451 Z M 152.724078 14.288759 C 157.908029 14.288759 162.766671 15.616228 167.305252 18.271166 L 160.751856 28.025179 C 158.479943 25.884438 155.872226 24.814068 152.923461 24.814068 C 151.380868 24.814068 149.974695 25.249562 148.710189 26.131043 C 147.450929 27.007278 146.826547 28.088142 146.826547 29.373636 C 146.826547 30.318081 147.277781 31.141846 148.175004 31.855426 C 149.072226 32.56376 150.719757 33.261599 153.11235 33.938451 C 156.365436 34.919624 158.716054 35.874563 160.169449 36.792772 C 161.633338 37.710982 162.766671 38.849563 163.574696 40.19802 C 164.387968 41.546477 164.797227 43.225489 164.797227 45.245551 C 164.797227 48.152341 164.046918 51.237527 162.556795 54.49586 C 161.061424 57.748947 158.605869 60.340922 155.200621 62.277034 C 151.790127 64.197404 147.75525 65.204812 143.095991 65.283515 C 137.104015 65.283515 131.710188 63.447095 126.909261 59.763762 L 133.903398 49.605736 C 137.250929 52.948021 140.698151 54.621786 144.255559 54.621786 C 146.217905 54.621786 147.875929 54.112835 149.224386 53.08444 C 150.572843 52.050798 151.249695 50.744317 151.249695 49.164996 C 151.249695 47.108205 149.192905 45.523637 145.084571 44.416538 C 140.120991 43.047094 136.904632 41.583205 135.440743 40.024871 C 133.987348 38.456044 133.263274 36.362526 133.263274 33.749562 C 133.263274 28.271784 135.131175 23.664994 138.877472 19.918697 C 142.629016 16.167154 147.2463 14.288759 152.724078 14.288759 Z M 188.104019 14.288759 C 193.28797 14.288759 198.151859 15.616228 202.69044 18.271166 L 196.131797 28.025179 C 193.86513 25.884438 191.257414 24.814068 188.308648 24.814068 C 186.760809 24.814068 185.354636 25.249562 184.09013 26.131043 C 182.836117 27.007278 182.211734 28.088142 182.211734 29.373636 C 182.211734 30.318081 182.657722 31.141846 183.560191 31.855426 C 184.457414 32.56376 186.104945 33.261599 188.497537 33.938451 C 191.750624 34.919624 194.101241 35.874563 195.554637 36.792772 C 197.018526 37.710982 198.151859 38.849563 198.954637 40.19802 C 199.773155 41.546477 200.182415 43.225489 200.182415 45.245551 C 200.182415 48.152341 199.432106 51.237527 197.936736 54.49586 C 196.441365 57.748947 193.991056 60.340922 190.580562 62.277034 C 187.175315 64.197404 183.140438 65.204812 178.475932 65.283515 C 172.489203 65.283515 167.090128 63.447095 162.294449 59.763762 L 169.288585 49.605736 C 172.63087 52.948021 176.083339 54.621786 179.6355 54.621786 C 181.603092 54.621786 183.261117 54.112835 184.609574 53.08444 C 185.958031 52.050798 186.629636 50.744317 186.629636 49.164996 C 186.629636 47.108205 184.578093 45.523637 180.469759 44.416538 C 175.500931 43.047094 172.28982 41.583205 170.825931 40.024871 C 169.372536 38.456044 168.643215 36.362526 168.643215 33.749562 C 168.643215 28.271784 170.516363 23.664994 174.257413 19.918697 C 178.014203 16.167154 182.626241 14.288759 188.104019 14.288759 Z M 188.104019 14.288759" stroke-linejoin="miter" fill="none" transform="matrix(0.744485, 0, 0, 0.744485, 154.967147, 0.323168)" stroke-linecap="butt"/><g fill-opacity="1" fill="#3b82f6"><g transform="translate(154.978779, 47.970223)"><g><path d="M 32.65625 -36.046875 L 29.265625 -14.625 L 33.609375 -14.625 L 32.515625 -7.453125 L 28.15625 -7.453125 L 26.96875 0 L 18.265625 0 L 19.453125 -7.453125 L 1.953125 -7.453125 L 2.921875 -13.4375 L 20.375 -36.046875 Z M 12.046875 -14.625 L 20.5625 -14.625 L 22.765625 -28.5 L 22.65625 -28.5 Z M 12.046875 -14.625"/></g></g></g><g fill-opacity="1" fill="#3b82f6"><g transform="translate(184.715575, 47.970223)"><g><path d="M 23.328125 -36.046875 C 26.804688 -36.046875 29.546875 -35.265625 31.546875 -33.703125 C 33.554688 -32.140625 34.5625 -29.847656 34.5625 -26.828125 C 34.5625 -24.429688 34.035156 -21.972656 32.984375 -19.453125 C 31.929688 -16.941406 30.226562 -15.046875 27.875 -13.765625 C 25.519531 -12.492188 22.875 -11.890625 19.9375 -11.953125 L 14.34375 -11.953125 L 12.4375 0 L 3.0625 0 L 8.75 -36.046875 Z M 16.921875 -28.5 L 15.53125 -19.5 L 17.828125 -19.5 C 20.472656 -19.5 22.265625 -19.976562 23.203125 -20.9375 C 24.148438 -21.894531 24.625 -23.332031 24.625 -25.25 C 24.625 -26.425781 24.234375 -27.257812 23.453125 -27.75 C 22.671875 -28.25 21.421875 -28.5 19.703125 -28.5 Z M 16.921875 -28.5"/></g></g></g><g fill-opacity="1" fill="#3b82f6"><g transform="translate(213.257123, 47.970223)"><g><path d="M 29.59375 -36.046875 L 37.484375 0 L 27.484375 0 L 26.15625 -6.265625 L 13.25 -6.265625 L 9.75 0 L -0.1875 0 L 19.359375 -36.046875 Z M 16.96875 -13.4375 L 24.765625 -13.4375 L 22.765625 -24.90625 L 22.65625 -24.90625 Z M 16.96875 -13.4375"/></g></g></g><g fill-opacity="1" fill="#3b82f6"><g transform="translate(247.535859, 47.970223)"><g><path d="M 21.140625 -37 C 24.992188 -37 28.609375 -36.015625 31.984375 -34.046875 L 27.109375 -26.78125 C 25.421875 -28.375 23.476562 -29.171875 21.28125 -29.171875 C 20.132812 -29.171875 19.085938 -28.84375 18.140625 -28.1875 C 17.203125 -27.53125 16.734375 -26.722656 16.734375 -25.765625 C 16.734375 -25.066406 17.066406 -24.453125 17.734375 -23.921875 C 18.410156 -23.398438 19.640625 -22.882812 21.421875 -22.375 C 23.835938 -21.644531 25.585938 -20.9375 26.671875 -20.25 C 27.765625 -19.5625 28.613281 -18.710938 29.21875 -17.703125 C 29.820312 -16.703125 30.125 -15.457031 30.125 -13.96875 C 30.125 -11.789062 29.566406 -9.488281 28.453125 -7.0625 C 27.335938 -4.644531 25.507812 -2.71875 22.96875 -1.28125 C 20.4375 0.144531 17.4375 0.890625 13.96875 0.953125 C 9.5 0.953125 5.476562 -0.414062 1.90625 -3.15625 L 7.125 -10.703125 C 9.613281 -8.222656 12.179688 -6.984375 14.828125 -6.984375 C 16.285156 -6.984375 17.515625 -7.363281 18.515625 -8.125 C 19.523438 -8.894531 20.03125 -9.867188 20.03125 -11.046875 C 20.03125 -12.578125 18.5 -13.753906 15.4375 -14.578125 C 11.738281 -15.597656 9.347656 -16.691406 8.265625 -17.859375 C 7.179688 -19.023438 6.640625 -20.578125 6.640625 -22.515625 C 6.640625 -26.597656 8.035156 -30.03125 10.828125 -32.8125 C 13.617188 -35.601562 17.054688 -37 21.140625 -37 Z M 21.140625 -37"/></g></g></g><g fill-opacity="1" fill="#3b82f6"><g transform="translate(273.878159, 47.970223)"><g><path d="M 21.140625 -37 C 24.992188 -37 28.609375 -36.015625 31.984375 -34.046875 L 27.109375 -26.78125 C 25.421875 -28.375 23.476562 -29.171875 21.28125 -29.171875 C 20.132812 -29.171875 19.085938 -28.84375 18.140625 -28.1875 C 17.203125 -27.53125 16.734375 -26.722656 16.734375 -25.765625 C 16.734375 -25.066406 17.066406 -24.453125 17.734375 -23.921875 C 18.410156 -23.398438 19.640625 -22.882812 21.421875 -22.375 C 23.835938 -21.644531 25.585938 -20.9375 26.671875 -20.25 C 27.765625 -19.5625 28.613281 -18.710938 29.21875 -17.703125 C 29.820312 -16.703125 30.125 -15.457031 30.125 -13.96875 C 30.125 -11.789062 29.566406 -9.488281 28.453125 -7.0625 C 27.335938 -4.644531 25.507812 -2.71875 22.96875 -1.28125 C 20.4375 0.144531 17.4375 0.890625 13.96875 0.953125 C 9.5 0.953125 5.476562 -0.414062 1.90625 -3.15625 L 7.125 -10.703125 C 9.613281 -8.222656 12.179688 -6.984375 14.828125 -6.984375 C 16.285156 -6.984375 17.515625 -7.363281 18.515625 -8.125 C 19.523438 -8.894531 20.03125 -9.867188 20.03125 -11.046875 C 20.03125 -12.578125 18.5 -13.753906 15.4375 -14.578125 C 11.738281 -15.597656 9.347656 -16.691406 8.265625 -17.859375 C 7.179688 -19.023438 6.640625 -20.578125 6.640625 -22.515625 C 6.640625 -26.597656 8.035156 -30.03125 10.828125 -32.8125 C 13.617188 -35.601562 17.054688 -37 21.140625 -37 Z M 21.140625 -37"/></g></g></g></svg>